<svg width="95" height="94" viewBox="0 0 95 94" fill="none" xmlns="http://www.w3.org/2000/svg">
<path d="M9.53873 46.6281L9.64323 45.8794L7.79217 45.621C8.08159 45.4211 8.36359 45.0717 8.44584 44.4824C8.59872 43.3871 7.8613 42.4925 6.81444 42.3464C5.76759 42.2003 4.80648 42.8578 4.6536 43.9531C4.58102 44.4731 4.72111 44.9379 4.93586 45.2223L4.58922 45.174L4.48472 45.9227L9.53873 46.6281ZM7.78222 44.3757C7.68836 45.0482 7.15548 45.5746 6.37901 45.4662C5.5956 45.3568 5.22722 44.7047 5.32108 44.0322C5.41494 43.3597 6.03343 42.9795 6.71284 43.0744C7.39226 43.1692 7.87608 43.7032 7.78222 44.3757Z" fill="white"/>
<path d="M8.84399 40.2991L9.02226 39.5644L4.28084 38.4139L4.22502 39.1783L8.84399 40.2991Z" fill="white"/>
<path d="M9.84065 36.1092C10.0513 35.5602 9.97364 35.118 9.83018 34.808L10.174 34.9475L10.4474 34.2351L7.06875 32.9384L6.80036 33.6377L7.12712 33.7631C6.80156 33.908 6.45402 34.247 6.2659 34.7372C5.8696 35.7697 6.3925 36.8102 7.37932 37.1889C8.36613 37.5677 9.44435 37.1417 9.84065 36.1092ZM9.23334 35.8161C8.99004 36.45 8.28412 36.7264 7.64367 36.4806C7.00323 36.2348 6.67005 35.5596 6.91335 34.9257C7.15414 34.2983 7.76955 33.9646 8.50149 34.2456C9.23997 34.529 9.47413 35.1887 9.23334 35.8161Z" fill="white"/>
<path d="M12.379 32.5122L12.7704 31.8087L9.52362 27.2063L9.139 27.8975L10.6925 30.0436L8.04981 29.8548L7.6652 30.546L11.1992 30.7742L12.379 32.5122Z" fill="white"/>
<path d="M15.2974 24.8486L13.4771 20.9097L12.9753 21.5211L14.1115 23.8663L11.5809 23.2202L11.0791 23.8317L15.2974 24.8486Z" fill="white"/>
<path d="M15.6505 17.4375C15.8256 17.2661 15.8285 16.9988 15.662 16.8287C15.4907 16.6536 15.2234 16.6507 15.0483 16.822C14.8782 16.9885 14.8753 17.2558 15.0466 17.4309C15.2131 17.601 15.4803 17.6039 15.6505 17.4375ZM18.2985 20.6343L18.8389 20.1056L16.303 17.5139L15.7627 18.0426L18.2985 20.6343Z" fill="white"/>
<path d="M21.9067 17.1341C22.3809 16.7865 22.5549 16.3725 22.602 16.0342L22.8157 16.3376L23.4367 15.8824L20.5522 11.9473L20.017 12.4959L20.8943 13.6928C20.5421 13.6385 20.0664 13.7355 19.643 14.0459C18.751 14.6998 18.6277 15.8577 19.2526 16.7102C19.8775 17.5627 21.0147 17.7879 21.9067 17.1341ZM21.5546 16.559C21.0069 16.9604 20.2468 16.8233 19.8412 16.27C19.4357 15.7167 19.5378 14.9562 20.0854 14.5548C20.6274 14.1575 21.3255 14.2099 21.789 14.8423C22.2566 15.4802 22.0966 16.1617 21.5546 16.559Z" fill="white"/>
<path d="M26.193 13.8964C27.1185 13.3858 27.2825 12.8716 27.2825 12.8716L26.9545 12.2771C26.9484 12.2805 26.659 12.8718 25.8806 13.3012C25.1635 13.6968 24.5768 13.4448 24.2328 12.9951L26.7642 11.5987L26.5951 11.2922C26.1725 10.526 25.22 10.0602 24.3006 10.5673C23.3199 11.1083 22.9895 12.2339 23.5136 13.184C24.0173 14.0972 25.0774 14.5118 26.193 13.8964ZM23.9794 12.4633C23.8809 12.1978 23.8197 11.5361 24.5123 11.1541C25.2049 10.772 25.6584 11.2173 25.8182 11.449L23.9794 12.4633Z" fill="white"/>
<path d="M30.204 11.5277C31.227 11.1262 31.7361 10.009 31.35 9.02508C30.9638 8.04113 29.8283 7.56184 28.8052 7.96331C27.7822 8.36479 27.2757 9.48848 27.6618 10.4724C28.0479 11.4564 29.1809 11.9292 30.204 11.5277ZM29.9559 10.8956C29.2913 11.1564 28.5875 10.8386 28.3395 10.2065C28.0889 9.5679 28.3886 8.85622 29.0533 8.59539C29.7179 8.33456 30.4217 8.65243 30.6723 9.29102C30.9203 9.9231 30.6206 10.6348 29.9559 10.8956Z" fill="white"/>
<path d="M43.604 8.77875L44.3599 8.79334L44.3959 6.92469C44.6289 7.18824 45.0094 7.42662 45.6043 7.43811C46.71 7.45945 47.5104 6.62074 47.5308 5.56394C47.5512 4.50713 46.7839 3.63116 45.6781 3.60982C45.1532 3.59969 44.7084 3.79414 44.4516 4.04123L44.4583 3.69129L43.7025 3.6767L43.604 8.77875ZM45.6312 6.7665C44.9523 6.7534 44.3662 6.287 44.3814 5.50315C44.3966 4.71229 45.0003 4.26886 45.6792 4.28196C46.358 4.29507 46.8092 4.86388 46.7959 5.54975C46.7827 6.23562 46.3101 6.77961 45.6312 6.7665Z" fill="white"/>
<path d="M49.9584 7.33331L50.709 7.42342L51.2905 2.5792L50.5249 2.61419L49.9584 7.33331Z" fill="white"/>
<path d="M54.3482 7.83642C54.918 7.98159 55.3481 7.85278 55.6392 7.67412L55.5408 8.03191L56.2802 8.22027L57.1737 4.71329L56.4478 4.52838L56.3614 4.86755C56.1794 4.56114 55.8022 4.25555 55.2935 4.12594C54.2217 3.8529 53.2494 4.4937 52.9885 5.51798C52.7275 6.54227 53.2764 7.56338 54.3482 7.83642ZM54.5684 7.19905C53.9104 7.03142 53.5534 6.3626 53.7228 5.69784C53.8921 5.03307 54.5238 4.62334 55.1818 4.79096C55.833 4.95686 56.2362 5.52912 56.0427 6.28885C55.8474 7.05537 55.2196 7.36495 54.5684 7.19905Z" fill="white"/>
<path d="M58.3677 9.98161L59.1115 10.2897L63.3105 6.53575L62.5797 6.23306L60.6262 8.02274L60.5102 5.37591L59.7794 5.07322L59.9587 8.61001L58.3677 9.98161Z" fill="white"/>
<path d="M66.1461 11.9124L69.8459 9.64503L69.1801 9.21796L66.9835 10.6199L67.33 8.03124L66.6642 7.60417L66.1461 11.9124Z" fill="white"/>
<path d="M73.582 11.4207C73.7725 11.5747 74.0383 11.5466 74.1879 11.3615C74.342 11.171 74.3138 10.9052 74.1233 10.7512C73.9382 10.6015 73.6724 10.6297 73.5184 10.8202C73.3688 11.0052 73.3969 11.271 73.582 11.4207ZM70.7141 14.422L71.302 14.8973L73.5818 12.0777L72.9939 11.6024L70.7141 14.422Z" fill="white"/>
<path d="M74.6167 17.6057C75.0171 18.0363 75.4485 18.1609 75.79 18.1684L75.5135 18.4159L76.0378 18.9798L79.6109 15.6574L79.0038 15.1896L77.917 16.2001C77.93 15.8439 77.7783 15.3828 77.4208 14.9983C76.6677 14.1883 75.5033 14.2005 74.7292 14.9203C73.9551 15.64 73.8636 16.7957 74.6167 17.6057ZM75.147 17.1891C74.6846 16.6918 74.7325 15.9209 75.2348 15.4537C75.7372 14.9866 76.5045 14.9996 76.9668 15.4969C77.4244 15.989 77.4535 16.6885 76.8793 17.2223C76.3001 17.761 75.6046 17.6812 75.147 17.1891Z" fill="white"/>
<path d="M78.3288 21.4875C78.9443 22.3468 79.4742 22.4494 79.4742 22.4494L80.0261 22.054C80.0221 22.0483 79.4009 21.8302 78.8832 21.1075C78.4063 20.4417 78.5877 19.8295 78.9941 19.4351L80.6776 21.7854L80.9621 21.5816C81.6735 21.0721 82.0245 20.0715 81.413 19.2179C80.7608 18.3074 79.6042 18.1112 78.7222 18.743C77.8743 19.3504 77.5869 20.4518 78.3288 21.4875ZM79.4925 19.1212C79.7446 18.9923 80.3946 18.8539 80.8552 19.4969C81.3158 20.14 80.9267 20.6426 80.7154 20.8284L79.4925 19.1212Z" fill="white"/>
<path d="M81.2533 25.3695C81.7698 26.3396 82.9382 26.7167 83.8711 26.2198C84.8041 25.723 85.1495 24.5398 84.6329 23.5698C84.1164 22.5998 82.9419 22.226 82.0089 22.7228C81.0759 23.2196 80.7367 24.3995 81.2533 25.3695ZM81.8526 25.0504C81.517 24.4202 81.7517 23.6845 82.3511 23.3653C82.9566 23.0429 83.698 23.2587 84.0336 23.889C84.3692 24.5192 84.1344 25.2548 83.5289 25.5773C82.9296 25.8964 82.1882 25.6806 81.8526 25.0504Z" fill="white"/>
<path d="M85.438 38.1464L85.5136 38.8986L87.3732 38.7115C87.1393 38.9743 86.948 39.3804 87.0076 39.9725C87.1183 41.0729 88.0464 41.7675 89.0981 41.6617C90.1498 41.5559 90.928 40.6897 90.8174 39.5893C90.7648 39.0669 90.5187 38.6484 90.2427 38.4229L90.591 38.3879L90.5153 37.6357L85.438 38.1464ZM87.6776 39.9191C87.6097 39.2435 88.0028 38.606 88.7829 38.5275C89.5699 38.4484 90.0822 38.9948 90.1501 39.6704C90.2181 40.346 89.7071 40.8618 89.0246 40.9304C88.342 40.9991 87.7456 40.5947 87.6776 39.9191Z" fill="white"/>
<path d="M87.6276 44.4257L87.6247 45.1817L92.5036 45.2005L92.3806 44.444L87.6276 44.4257Z" fill="white"/>
<path d="M87.6165 48.8508C87.5397 49.4337 87.7184 49.8456 87.9302 50.1136L87.5633 50.0582L87.4636 50.8146L91.0516 51.2874L91.1495 50.5448L90.8025 50.4991C91.0852 50.2821 91.3441 49.8714 91.4127 49.3509C91.5571 48.2544 90.8059 47.3647 89.758 47.2266C88.71 47.0885 87.7609 47.7542 87.6165 48.8508ZM88.2754 48.9941C88.3641 48.3209 88.986 47.8874 89.6662 47.977C90.3463 48.0666 90.8278 48.6455 90.7391 49.3187C90.6513 49.9849 90.1307 50.4529 89.3534 50.3505C88.5692 50.2472 88.1876 49.6603 88.2754 48.9941Z" fill="white"/>
<path d="M85.9715 52.9559L85.7551 53.7312L89.9863 57.4488L90.199 56.6869L88.1876 54.9626L90.8013 54.5294L91.014 53.7675L87.5243 54.3705L85.9715 52.9559Z" fill="white"/>
<path d="M84.87 61.1727L87.5447 64.5896L87.893 63.8794L86.2496 61.8572L88.8609 61.906L89.2092 61.1958L84.87 61.1727Z" fill="white"/>
<path d="M86.1924 68.5001C86.0609 68.7068 86.1189 68.9677 86.3197 69.0955C86.5264 69.227 86.7873 69.169 86.9188 68.9623C87.0466 68.7615 86.9886 68.5006 86.7819 68.369C86.5811 68.2413 86.3202 68.2993 86.1924 68.5001ZM82.8861 65.9899L82.4803 66.6277L85.5396 68.5742L85.9454 67.9364L82.8861 65.9899Z" fill="white"/>
<path d="M80.278 70.0492C79.8968 70.4969 79.823 70.9397 79.8553 71.2798L79.5773 71.0339L79.0781 71.6201L82.7927 74.7835L83.1869 74.1262L82.0571 73.1641C82.4123 73.1356 82.8528 72.9315 83.1932 72.5318C83.9103 71.6897 83.7631 70.5346 82.9583 69.8493C82.1536 69.164 80.9951 69.2072 80.278 70.0492ZM80.7533 70.5275C81.1936 70.0106 81.9649 69.9686 82.4871 70.4134C83.0094 70.8582 83.0855 71.6218 82.6453 72.1387C82.2096 72.6503 81.5182 72.7603 80.9213 72.252C80.3191 71.7392 80.3176 71.0391 80.7533 70.5275Z" fill="white"/>
<path d="M76.7625 74.2591C75.9807 74.9704 75.9404 75.5086 75.9404 75.5086L76.3973 76.0109C76.4024 76.0062 76.5468 75.3639 77.2044 74.7656C77.8102 74.2145 78.4393 74.3235 78.8783 74.6812L76.7398 76.6267L76.9753 76.8856C77.5641 77.5328 78.5987 77.7651 79.3754 77.0585C80.2039 76.3048 80.2642 75.1333 79.5341 74.3307C78.8322 73.5592 77.7049 73.4018 76.7625 74.2591ZM79.2481 75.1397C79.4054 75.3751 79.6185 76.0046 79.0334 76.5369C78.4483 77.0692 77.9038 76.7412 77.6947 76.5529L79.2481 75.1397Z" fill="white"/>
<path d="M73.3451 77.518C72.4424 78.1449 72.205 79.3494 72.8079 80.2176C73.4108 81.0858 74.6263 81.2899 75.529 80.6631C76.4317 80.0363 76.6651 78.826 76.0622 77.9578C75.4593 77.0896 74.2478 76.8912 73.3451 77.518ZM73.7324 78.0757C74.3188 77.6685 75.077 77.8153 75.4643 78.373C75.8555 78.9365 75.7282 79.6981 75.1418 80.1054C74.5553 80.5126 73.7971 80.3658 73.4059 79.8024C73.0186 79.2446 73.1459 78.483 73.7324 78.0757Z" fill="white"/>
<path d="M61.0243 83.206L60.2857 83.3674L60.6848 85.1933C60.397 84.9911 59.9716 84.8476 59.3903 84.9747C58.3098 85.2109 57.7262 86.2126 57.9519 87.2452C58.1777 88.2778 59.1274 88.9516 60.2079 88.7154C60.7208 88.6033 61.1083 88.3108 61.3007 88.0108L61.3754 88.3527L62.114 88.1913L61.0243 83.206ZM59.5201 85.6342C60.1834 85.4892 60.8619 85.8066 61.0293 86.5726C61.1982 87.3453 60.7141 87.9169 60.0507 88.0619C59.3874 88.2069 58.8165 87.7584 58.67 87.0883C58.5235 86.4181 58.8568 85.7792 59.5201 85.6342Z" fill="white"/>
<path d="M55.2679 86.0533L54.517 86.1405L55.0799 90.9869L55.8163 90.7746L55.2679 86.0533Z" fill="white"/>
<path d="M50.6597 86.5677C50.0718 86.5587 49.6833 86.7837 49.4415 87.025L49.4543 86.6541L48.6913 86.6424L48.6355 90.2609L49.3844 90.2725L49.3898 89.9225C49.6379 90.1784 50.0757 90.3882 50.6006 90.3963C51.7065 90.4134 52.5037 89.5646 52.52 88.5077C52.5363 87.4508 51.7656 86.5848 50.6597 86.5677ZM50.5934 87.2388C51.2723 87.2493 51.7746 87.8171 51.764 88.503C51.7534 89.1889 51.2339 89.734 50.555 89.7235C49.8831 89.7131 49.3582 89.25 49.3703 88.4661C49.3825 87.6752 49.9214 87.2284 50.5934 87.2388Z" fill="white"/>
<path d="M46.4164 85.3891L45.6209 85.2656L42.4283 89.9057L43.2099 90.0271L44.685 87.8263L45.4234 90.3707L46.205 90.4921L45.1948 87.0979L46.4164 85.3891Z" fill="white"/>
<path d="M38.213 85.2675L35.1395 88.3307L35.8862 88.5918L37.698 86.7189L37.961 89.3174L38.7076 89.5785L38.213 85.2675Z" fill="white"/>
<path d="M31.1115 87.4531C30.8908 87.3469 30.6385 87.4352 30.5353 87.6497C30.429 87.8704 30.5174 88.1227 30.7381 88.229C30.9526 88.3322 31.2049 88.2438 31.3111 88.0231C31.4143 87.8086 31.326 87.5564 31.1115 87.4531ZM33.2147 83.8741L32.5335 83.5463L30.961 86.8136L31.6422 87.1414L33.2147 83.8741Z" fill="white"/>
<path d="M28.8774 81.7602C28.3884 81.4337 27.9399 81.412 27.606 81.4837L27.8178 81.179L27.1774 80.7515L24.4683 84.8092L25.167 85.1242L25.991 83.89C26.0607 84.2395 26.3148 84.6532 26.7514 84.9447C27.6712 85.5588 28.8013 85.278 29.3882 84.3989C29.9751 83.5199 29.7973 82.3743 28.8774 81.7602ZM28.4577 82.288C29.0224 82.665 29.154 83.4261 28.7731 83.9967C28.3922 84.5672 27.6427 84.7317 27.0779 84.3547C26.519 83.9816 26.3292 83.3078 26.7645 82.6557C27.2037 81.9979 27.8988 81.9149 28.4577 82.288Z" fill="white"/>
<path d="M24.2923 78.7619C23.4951 78.0678 22.9558 78.0902 22.9558 78.0902L22.51 78.6023C22.5152 78.6069 23.17 78.6758 23.8405 79.2595C24.4582 79.7973 24.4229 80.4348 24.1185 80.9123L21.9381 79.014L21.7083 79.278C21.1337 79.9379 21.0231 80.9925 21.815 81.6819C22.6597 82.4173 23.8303 82.3413 24.5428 81.523C25.2277 80.7364 25.2531 79.5984 24.2923 78.7619ZM23.706 81.3328C23.4905 81.5164 22.89 81.8011 22.2934 81.2817C21.6968 80.7623 21.9594 80.1835 22.1222 79.9539L23.706 81.3328Z" fill="white"/>
<path d="M20.6656 75.7528C19.938 74.9292 18.714 74.8336 17.9218 75.5335C17.1297 76.2333 17.0684 77.4644 17.7961 78.288C18.5237 79.1116 19.753 79.2025 20.5451 78.5027C21.3372 77.8028 21.3932 76.5764 20.6656 75.7528ZM20.1567 76.2024C20.6295 76.7374 20.5719 77.5075 20.0631 77.9571C19.549 78.4113 18.7777 78.3735 18.3049 77.8384C17.8322 77.3033 17.8898 76.5332 18.4039 76.079C18.9127 75.6295 19.684 75.6673 20.1567 76.2024Z" fill="white"/>
<path d="M13.5709 64.1839L13.3241 63.4693L11.5575 64.0797C11.7246 63.7701 11.8172 63.3308 11.6229 62.7684C11.2618 61.7231 10.1986 61.2609 9.1995 61.6061C8.20045 61.9513 7.64267 62.9735 8.00384 64.0188C8.17528 64.515 8.51116 64.8656 8.83164 65.0215L8.50083 65.1358L8.7477 65.8503L13.5709 64.1839ZM10.9832 62.9747C11.2049 63.6164 10.9692 64.3274 10.2282 64.5834C9.48051 64.8417 8.85616 64.4279 8.63443 63.7861C8.41269 63.1444 8.79113 62.5248 9.43952 62.3008C10.0879 62.0768 10.7615 62.3329 10.9832 62.9747Z" fill="white"/>
<path d="M10.0869 58.877L9.91141 58.1417L5.16565 59.2741L5.46368 59.9802L10.0869 58.877Z" fill="white"/>
<path d="M9.0526 54.563C8.9915 53.9782 8.72174 53.6193 8.45334 53.4081L8.82306 53.3765L8.74378 52.6176L5.14437 52.9936L5.22219 53.7386L5.5703 53.7022C5.34585 53.979 5.18977 54.4387 5.24432 54.9609C5.35924 56.0609 6.29704 56.7512 7.34832 56.6414C8.3996 56.5316 9.16752 55.6631 9.0526 54.563ZM8.37841 54.5772C8.44897 55.2525 7.94509 55.8189 7.26281 55.8902C6.58052 55.9615 5.97742 55.5107 5.90686 54.8354C5.83704 54.167 6.2343 53.5906 7.01406 53.5092C7.80077 53.427 8.30859 53.9088 8.37841 54.5772Z" fill="white"/>
</svg>
