<svg width="20" height="20" viewBox="0 0 20 20" fill="none" xmlns="http://www.w3.org/2000/svg">
<g clip-path="url(#clip0_949_1054)">
<path d="M19.75 10C19.75 11.3207 19.4926 12.5818 18.9777 13.7856C18.4612 14.9933 17.768 16.0302 16.8991 16.8991C16.0302 17.768 14.9933 18.4612 13.7856 18.9777C12.5818 19.4926 11.3207 19.75 10 19.75C8.67935 19.75 7.41817 19.4926 6.21438 18.9777C5.00667 18.4612 3.9698 17.768 3.10088 16.8991C2.23197 16.0302 1.53882 14.9933 1.02227 13.7856C0.507394 12.5818 0.25 11.3207 0.25 10C0.25 8.67935 0.507394 7.41817 1.02227 6.21438C1.53882 5.00667 2.23197 3.9698 3.10088 3.10088C3.9698 2.23197 5.00667 1.53882 6.21438 1.02227C7.41817 0.507394 8.67935 0.25 10 0.25C11.3207 0.25 12.5818 0.507394 13.7856 1.02227C14.9933 1.53882 16.0302 2.23197 16.8991 3.10088C17.768 3.9698 18.4612 5.00667 18.9777 6.21438C19.4926 7.41817 19.75 8.67935 19.75 10Z" fill="url(#paint0_radial_949_1054)" stroke="white" stroke-width="0.5"/>
<path d="M13.2699 14.587L14.9105 6.85262C14.9775 6.52524 14.9384 6.29087 14.7934 6.1495C14.6483 6.00813 14.4567 5.98209 14.2186 6.07137L4.57572 9.78789C4.35995 9.86974 4.213 9.96274 4.13487 10.0669C4.05675 10.1711 4.04745 10.2697 4.10697 10.3627C4.16649 10.4557 4.28554 10.5282 4.46411 10.5803L6.93063 11.3504L12.6561 7.74548C12.8123 7.64131 12.9314 7.61899 13.0132 7.67852C13.0653 7.71572 13.0504 7.77152 12.9686 7.84593L8.33688 12.0312L8.15831 14.5758C8.32944 14.5758 8.49685 14.494 8.66054 14.3303L9.8659 13.1696L12.3659 15.0111C12.8421 15.279 13.1434 15.1376 13.2699 14.587Z" fill="white"/>
</g>
<defs>
<radialGradient id="paint0_radial_949_1054" cx="0" cy="0" r="1" gradientUnits="userSpaceOnUse" gradientTransform="translate(18.5366 1.75439) rotate(125.165) scale(23.8212 21.6777)">
<stop stop-color="#FE7BFE"/>
<stop offset="1" stop-color="#8D3BE4"/>
</radialGradient>
<clipPath id="clip0_949_1054">
<rect width="20" height="20" fill="white"/>
</clipPath>
</defs>
</svg>
