<svg width="20" height="20" viewBox="0 0 20 20" fill="none" xmlns="http://www.w3.org/2000/svg">
<g clip-path="url(#clip0_949_1056)">
<path d="M0.650391 9.9999C0.650391 4.83597 4.83646 0.649902 10.0004 0.649902C15.1643 0.649902 19.3504 4.83597 19.3504 9.9999C19.3504 15.1638 15.1643 19.3499 10.0004 19.3499C4.83646 19.3499 0.650391 15.1638 0.650391 9.9999Z" fill="url(#paint0_radial_949_1056)" stroke="white" stroke-width="0.5"/>
<path d="M13.6901 11.2311C13.6901 11.2311 14.5391 12.0691 14.7481 12.4581C14.7541 12.4661 14.7571 12.4741 14.7591 12.4781C14.8441 12.6211 14.8641 12.7321 14.8221 12.8151C14.7521 12.9531 14.5121 13.0211 14.4301 13.0271H12.9301C12.8261 13.0271 12.6081 13.0001 12.3441 12.8181C12.1411 12.6761 11.9411 12.4431 11.7461 12.2161C11.4551 11.8781 11.2031 11.5861 10.9491 11.5861C10.9168 11.5861 10.8847 11.5911 10.8541 11.6011C10.6621 11.6631 10.4161 11.9371 10.4161 12.6671C10.4161 12.8951 10.2361 13.0261 10.1091 13.0261H9.42206C9.18806 13.0261 7.96906 12.9441 6.88906 11.8051C5.56706 10.4101 4.37706 7.61212 4.36706 7.58612C4.29206 7.40512 4.44706 7.30812 4.61606 7.30812H6.13106C6.33306 7.30812 6.39906 7.43112 6.44506 7.54012C6.49906 7.66712 6.69706 8.17212 7.02206 8.74012C7.54906 9.66612 7.87206 10.0421 8.13106 10.0421C8.17963 10.0416 8.22733 10.0292 8.27006 10.0061C8.60806 9.81812 8.54506 8.61312 8.53006 8.36312C8.53006 8.31612 8.52906 7.82412 8.35606 7.58812C8.23206 7.41712 8.02106 7.35212 7.89306 7.32812C7.94487 7.25663 8.01313 7.19867 8.09206 7.15912C8.32406 7.04312 8.74206 7.02612 9.15706 7.02612H9.38806C9.83806 7.03212 9.95406 7.06112 10.1171 7.10212C10.4471 7.18112 10.4541 7.39412 10.4251 8.12312C10.4161 8.33012 10.4071 8.56412 10.4071 8.84012C10.4071 8.90012 10.4041 8.96412 10.4041 9.03212C10.3941 9.40312 10.3821 9.82412 10.6441 9.99712C10.6782 10.0186 10.7177 10.03 10.7581 10.0301C10.8491 10.0301 11.1231 10.0301 11.8651 8.75712C12.0939 8.34738 12.2928 7.9216 12.4601 7.48312C12.4751 7.45712 12.5191 7.37712 12.5711 7.34612C12.6094 7.32656 12.652 7.31661 12.6951 7.31712H14.4761C14.6701 7.31712 14.8031 7.34612 14.8281 7.42112C14.8721 7.54012 14.8201 7.90312 14.0071 9.00412L13.6441 9.48312C12.9071 10.4491 12.9071 10.4981 13.6901 11.2311Z" fill="white"/>
</g>
<defs>
<radialGradient id="paint0_radial_949_1056" cx="0" cy="0" r="1" gradientUnits="userSpaceOnUse" gradientTransform="translate(18.1955 2.08411) rotate(125.165) scale(22.8683 20.8106)">
<stop stop-color="#FE7BFE"/>
<stop offset="1" stop-color="#8D3BE4"/>
</radialGradient>
<clipPath id="clip0_949_1056">
<rect width="20" height="20" fill="white"/>
</clipPath>
</defs>
</svg>
