<svg width="40" height="40" viewBox="0 0 40 40" fill="none" xmlns="http://www.w3.org/2000/svg">
<g clip-path="url(#clip0_1067_4288)">
<path fill-rule="evenodd" clip-rule="evenodd" d="M0.800781 19.9998C0.800781 9.39581 9.39678 0.799805 20.0008 0.799805C30.6048 0.799805 39.2008 9.39581 39.2008 19.9998C39.2008 30.6038 30.6048 39.1998 20.0008 39.1998C9.39678 39.1998 0.800781 30.6038 0.800781 19.9998ZM30.7223 13.2195C31.0946 13.574 31.3625 14.0154 31.4991 14.4994C32 16.2803 32 20 32 20C32 20 32 23.7197 31.4991 25.5006C31.2232 26.4841 30.4116 27.2586 29.3777 27.521C27.5054 28 20 28 20 28C20 28 12.4946 28 10.6223 27.521C9.59107 27.2586 8.77679 26.4841 8.50089 25.5006C8 23.7197 8 20 8 20C8 20 8 16.2803 8.50089 14.4968C8.63707 14.0126 8.90479 13.571 9.27716 13.2164C9.64953 12.8618 10.1134 12.6066 10.6223 12.4764C12.4946 12 20 12 20 12C20 12 27.5054 12 29.3777 12.479C29.8863 12.6095 30.35 12.8649 30.7223 13.2195ZM23.8304 19.9745L17.6161 16.586V23.414L23.8304 19.9745Z" fill="white"/>
</g>
<defs>
<clipPath id="clip0_1067_4288">
<rect width="40" height="40" fill="white"/>
</clipPath>
</defs>
</svg>
