<svg width="20" height="20" viewBox="0 0 20 20" fill="none" xmlns="http://www.w3.org/2000/svg">
<g clip-path="url(#clip0_1066_3651)">
<path d="M0.650391 9.9999C0.650391 4.83597 4.83646 0.649902 10.0004 0.649902C15.1643 0.649902 19.3504 4.83597 19.3504 9.9999C19.3504 15.1638 15.1643 19.3499 10.0004 19.3499C4.83646 19.3499 0.650391 15.1638 0.650391 9.9999Z" fill="url(#paint0_radial_1066_3651)" stroke="white" stroke-width="0.5"/>
<path d="M15.7496 7.24968C15.6812 7.00769 15.5473 6.78701 15.3612 6.60973C15.175 6.43244 14.9432 6.30477 14.6888 6.23949C13.7527 6 10 6 10 6C10 6 6.24732 6 5.31116 6.23822C5.05672 6.30329 4.82477 6.43089 4.63858 6.6082C4.45239 6.78552 4.31853 7.00631 4.25045 7.24841C4 8.14013 4 10 4 10C4 10 4 11.8599 4.25045 12.7503C4.38839 13.242 4.79554 13.6293 5.31116 13.7605C6.24732 14 10 14 10 14C10 14 13.7527 14 14.6888 13.7605C15.2058 13.6293 15.6116 13.242 15.7496 12.7503C16 11.8599 16 10 16 10C16 10 16 8.14013 15.7496 7.24968ZM8.80804 11.707V8.29299L11.9152 9.98726L8.80804 11.707Z" fill="white"/>
</g>
<defs>
<radialGradient id="paint0_radial_1066_3651" cx="0" cy="0" r="1" gradientUnits="userSpaceOnUse" gradientTransform="translate(18.1955 2.08411) rotate(125.165) scale(22.8683 20.8106)">
<stop stop-color="#FE7BFE"/>
<stop offset="1" stop-color="#8D3BE4"/>
</radialGradient>
<clipPath id="clip0_1066_3651">
<rect width="20" height="20" fill="white"/>
</clipPath>
</defs>
</svg>
