<svg width="20" height="20" viewBox="0 0 20 20" fill="none" xmlns="http://www.w3.org/2000/svg">
<g clip-path="url(#clip0_1066_3645)">
<path fill-rule="evenodd" clip-rule="evenodd" d="M0.400391 9.9999C0.400391 4.6979 4.69839 0.399902 10.0004 0.399902C15.3024 0.399902 19.6004 4.6979 19.6004 9.9999C19.6004 15.3019 15.3024 19.5999 10.0004 19.5999C4.69839 19.5999 0.400391 15.3019 0.400391 9.9999ZM15.3612 6.60973C15.5473 6.78701 15.6812 7.00769 15.7496 7.24968C16 8.14013 16 10 16 10C16 10 16 11.8599 15.7496 12.7503C15.6116 13.242 15.2058 13.6293 14.6888 13.7605C13.7527 14 10 14 10 14C10 14 6.24732 14 5.31116 13.7605C4.79554 13.6293 4.38839 13.242 4.25045 12.7503C4 11.8599 4 10 4 10C4 10 4 8.14013 4.25045 7.24841C4.31853 7.00631 4.45239 6.78552 4.63858 6.6082C4.82477 6.43089 5.05672 6.30329 5.31116 6.23822C6.24732 6 10 6 10 6C10 6 13.7527 6 14.6888 6.23949C14.9432 6.30477 15.175 6.43244 15.3612 6.60973ZM11.9152 9.98726L8.80804 8.29299V11.707L11.9152 9.98726Z" fill="white"/>
</g>
<defs>
<clipPath id="clip0_1066_3645">
<rect width="20" height="20" fill="white"/>
</clipPath>
</defs>
</svg>
